# xmcd
#
# Track frame offsets:
#	150
#	18290
#	34425
#	51072
#	68287
#	85325
#	100472
#	119162
#	139187
#	169725
#	191885
#	208315
#	226412
#	247187
#	265625
#
# Disc length: 3840 seconds
#
# Revision: 2
# Processed by: cddbd v1.5.1PL2 Copyright (c) Steve Scherf et al.
# Submitted via: audiograbber 1.83.01
#
DISCID=de0efe0f
DTITLE=Music Maestro - MM6256
DYEAR=1900
DGENRE=Karaoke
TTITLE0=Midler, Bette - My One True Friend
TTITLE1=Tesh, John and Dalia - Mother I Miss You
TTITLE2=Dakota Moon - Another Day Goes By
TTITLE3=Goo Goo Dolls, The - Slide
TTITLE4=Isaak, Chris - Please
TTITLE5=Ace of Base - Whenever You're Near Me
TTITLE6=Mellencamp, John Cougar - Your Life Is Now
TTITLE7=Semisonic - Singing In My Sleep
TTITLE8=Dave Mattews Band, The - Crush
TTITLE9=Mullins, Shawn - Lullaby
TTITLE10=Adams, Bryan - On A Day Like Today
TTITLE11=Hornsby, Bruce - Great Divide
TTITLE12=Rimes, LeAnn - Feels Like Home
TTITLE13=Inoj - Time After Time
TTITLE14=Twain, Shania - From This Moment On
EXTD=As Listed In KJ Pro
EXTT0=
EXTT1=
EXTT2=
EXTT3=
EXTT4=
EXTT5=
EXTT6=
EXTT7=
EXTT8=
EXTT9=
EXTT10=
EXTT11=
EXTT12=
EXTT13=
EXTT14=
PLAYORDER=
